<svg id="Слой_1" data-name="Слой 1" xmlns="http://www.w3.org/2000/svg" viewBox="0 0 238.92 35.38"><defs><style>.cls-1{fill:#589255;}.cls-1,.cls-2{stroke:#fff;stroke-miterlimit:10;stroke-width:0.5px;}.cls-2{fill:#525aa0;}.cls-3{fill:#fff;}</style></defs><title>logo</title><path class="cls-1" d="M83,5.3H80.62a20,20,0,0,0-20,20v6.86a1.43,1.43,0,0,0,1.43,1.43h6.86a20,20,0,0,0,20-20V11.21A5.92,5.92,0,0,0,83,5.3Zm3,8.29A17.14,17.14,0,0,1,68.92,30.71h-3.4L76.08,20.16a1.43,1.43,0,0,0-2-2L63.5,28.69v-3.4A17.14,17.14,0,0,1,80.62,8.17H83a3,3,0,0,1,3,3v2.38Z" transform="translate(-2.03 -4.75)"/><path class="cls-1" d="M78.59,14.35,78,15a1.43,1.43,0,1,0,2,2l.62-.62a1.43,1.43,0,0,0-2-2Z" transform="translate(-2.03 -4.75)"/><path class="cls-2" d="M24.87,9.6a5.28,5.28,0,0,1,0,.72,2.1,2.1,0,0,1-.13.51.63.63,0,0,1-.21.29.49.49,0,0,1-.28.09,1.94,1.94,0,0,1-.86-.41,13.62,13.62,0,0,0-1.61-.9A15.16,15.16,0,0,0,19.33,9,12.06,12.06,0,0,0,16,8.59a9.76,9.76,0,0,0-4.12.84,8.88,8.88,0,0,0-3.09,2.32,10.36,10.36,0,0,0-1.94,3.52,14,14,0,0,0-.68,4.42,13.91,13.91,0,0,0,.74,4.72,10.06,10.06,0,0,0,2,3.47A8.52,8.52,0,0,0,12.08,30a10.56,10.56,0,0,0,4,.73,11.32,11.32,0,0,0,2.61-.31,9.73,9.73,0,0,0,2.46-.93V21.42H14.68a.58.58,0,0,1-.55-.36A2.66,2.66,0,0,1,14,19.92a4.82,4.82,0,0,1,0-.7,1.47,1.47,0,0,1,.14-.47.71.71,0,0,1,.23-.27.57.57,0,0,1,.32-.09H23.5a1.38,1.38,0,0,1,.47.09,1.33,1.33,0,0,1,.43.26,1.12,1.12,0,0,1,.3.47,2,2,0,0,1,.11.69V30.47a2.23,2.23,0,0,1-.19,1,1.68,1.68,0,0,1-.81.72,16.51,16.51,0,0,1-1.61.68,18.58,18.58,0,0,1-2,.62,18,18,0,0,1-4.25.52,15.58,15.58,0,0,1-5.75-1,11.72,11.72,0,0,1-4.28-2.84,12.42,12.42,0,0,1-2.67-4.42A16.94,16.94,0,0,1,2.28,20a17.06,17.06,0,0,1,1-6A13.08,13.08,0,0,1,6.09,9.41a12.55,12.55,0,0,1,4.35-2.93,14.74,14.74,0,0,1,5.63-1,15.19,15.19,0,0,1,3,.28,19,19,0,0,1,2.48.65,10,10,0,0,1,1.82.81,5.62,5.62,0,0,1,1,.72,1.5,1.5,0,0,1,.39.64A3.93,3.93,0,0,1,24.87,9.6Z" transform="translate(-2.03 -4.75)"/><path class="cls-2" d="M35.43,33a.53.53,0,0,1-.09.3.57.57,0,0,1-.3.2,3.27,3.27,0,0,1-.57.13,7.31,7.31,0,0,1-1.77,0,3.25,3.25,0,0,1-.58-.13.57.57,0,0,1-.3-.2.53.53,0,0,1-.09-.3V6.38a.49.49,0,0,1,.1-.3.65.65,0,0,1,.32-.2,3.59,3.59,0,0,1,.58-.13,5.76,5.76,0,0,1,.85-.05,6.12,6.12,0,0,1,.89.05,3.28,3.28,0,0,1,.57.13.58.58,0,0,1,.3.2.53.53,0,0,1,.09.3Z" transform="translate(-2.03 -4.75)"/><path class="cls-2" d="M57.71,25.79A8.06,8.06,0,0,1,57,29.27a7.47,7.47,0,0,1-2,2.58,8.64,8.64,0,0,1-3,1.6,12.49,12.49,0,0,1-3.72.54,13.3,13.3,0,0,1-2.58-.24,14.09,14.09,0,0,1-2.12-.58A10.21,10.21,0,0,1,42,32.47a4.17,4.17,0,0,1-.88-.62,1.57,1.57,0,0,1-.36-.65,3.83,3.83,0,0,1-.12-1.06,5.86,5.86,0,0,1,0-.78,1.88,1.88,0,0,1,.13-.5.56.56,0,0,1,.21-.27.59.59,0,0,1,.3-.08,1.76,1.76,0,0,1,.85.36,13.24,13.24,0,0,0,1.41.79,13.74,13.74,0,0,0,2.07.8,9.46,9.46,0,0,0,2.8.38,7.14,7.14,0,0,0,2.2-.32,5.17,5.17,0,0,0,1.72-.91,3.94,3.94,0,0,0,1.1-1.45,4.71,4.71,0,0,0,.39-2,3.66,3.66,0,0,0-.54-2,5.41,5.41,0,0,0-1.42-1.47,12.43,12.43,0,0,0-2-1.16l-2.31-1.07a25.09,25.09,0,0,1-2.3-1.21,9.72,9.72,0,0,1-2-1.57,7.27,7.27,0,0,1-1.43-2.11,7,7,0,0,1-.55-2.91A7.28,7.28,0,0,1,42,9.59,6.39,6.39,0,0,1,43.72,7.3,7.86,7.86,0,0,1,46.4,5.9a11.27,11.27,0,0,1,3.36-.48,10.89,10.89,0,0,1,1.86.16A12.69,12.69,0,0,1,53.37,6a9.79,9.79,0,0,1,1.47.6,3.82,3.82,0,0,1,.85.54,1.65,1.65,0,0,1,.27.32,1.24,1.24,0,0,1,.11.3,3.08,3.08,0,0,1,.06.44q0,.26,0,.66a6.5,6.5,0,0,1,0,.69,2.63,2.63,0,0,1-.1.5.62.62,0,0,1-.18.3.41.41,0,0,1-.27.1,1.72,1.72,0,0,1-.74-.3q-.5-.3-1.23-.68a10.84,10.84,0,0,0-1.73-.69,7.53,7.53,0,0,0-2.24-.31,5.92,5.92,0,0,0-2,.31,4.13,4.13,0,0,0-1.42.83,3.27,3.27,0,0,0-.84,1.22,4.06,4.06,0,0,0-.28,1.5,3.62,3.62,0,0,0,.54,2A5.48,5.48,0,0,0,47,15.82a12.59,12.59,0,0,0,2,1.18l2.32,1.08q1.18.55,2.32,1.2a9.7,9.7,0,0,1,2,1.54,7,7,0,0,1,1.44,2.1A6.91,6.91,0,0,1,57.71,25.79Z" transform="translate(-2.03 -4.75)"/><path class="cls-3" d="M99.87,32.58h-3V5.38h17.5v27.2h-3v-24H99.87Z" transform="translate(-2.03 -4.75)"/><path class="cls-3" d="M129.44,30.15a10.22,10.22,0,0,1-2.86,2.15,7,7,0,0,1-3.08.72,5.4,5.4,0,0,1-4-1.52,5.58,5.58,0,0,1-1.5-4.1,6.31,6.31,0,0,1,.71-3,5.25,5.25,0,0,1,1.93-2.06,10.14,10.14,0,0,1,3.71-1.09,20.71,20.71,0,0,0,4.9-1.17l0-.85a4.31,4.31,0,0,0-.72-2.84,3.91,3.91,0,0,0-3.14-1.19,4.37,4.37,0,0,0-2.86.79,5.18,5.18,0,0,0-1.39,3l-2.69-.45a7.48,7.48,0,0,1,2.33-4.62,7.69,7.69,0,0,1,5-1.45,7.18,7.18,0,0,1,4,1,4.12,4.12,0,0,1,1.83,2.37,16.85,16.85,0,0,1,.38,4.12v4.45a56.76,56.76,0,0,0,.18,5.89,8.76,8.76,0,0,0,.7,2.37H130A8.26,8.26,0,0,1,129.44,30.15Zm-.22-7.46A17.32,17.32,0,0,1,124.75,24a8.42,8.42,0,0,0-2.41.68,2.67,2.67,0,0,0-1.07,1.08,3.29,3.29,0,0,0-.38,1.6,3,3,0,0,0,.87,2.25,3.32,3.32,0,0,0,2.41.84,4.86,4.86,0,0,0,2.66-.76,4.74,4.74,0,0,0,1.79-2,9.05,9.05,0,0,0,.59-3.7Z" transform="translate(-2.03 -4.75)"/><path class="cls-3" d="M146.83,25.36l2.69.43a9,9,0,0,1-2.33,5.38A6.12,6.12,0,0,1,142.71,33a6.36,6.36,0,0,1-5.22-2.61q-2.05-2.61-2.05-7.71T137.5,15a6.52,6.52,0,0,1,5.32-2.57A6,6,0,0,1,147,14a7.67,7.67,0,0,1,2.2,4.68l-2.65.48a5.77,5.77,0,0,0-1.35-3,3.12,3.12,0,0,0-2.32-1A4,4,0,0,0,139.56,17q-1.33,1.79-1.33,5.69t1.27,5.83a3.84,3.84,0,0,0,3.26,1.8,3.49,3.49,0,0,0,2.66-1.2A6.53,6.53,0,0,0,146.83,25.36Z" transform="translate(-2.03 -4.75)"/><path class="cls-3" d="M150.39,12.88h13.12v2.76h-5.2V32.58h-2.73V15.64h-5.2Z" transform="translate(-2.03 -4.75)"/><path class="cls-3" d="M178,4.75h2.43a5.75,5.75,0,0,1-.74,2.81,2.47,2.47,0,0,1-1.45,1,18,18,0,0,1-3.4.2,9.49,9.49,0,0,0-4.57.77,4.38,4.38,0,0,0-1.81,2.56,17.2,17.2,0,0,0-.63,4.56q2.06-3.75,5.53-3.75a6.39,6.39,0,0,1,5.31,2.69,11.52,11.52,0,0,1,2.06,7.18A13.27,13.27,0,0,1,178.8,30a6.81,6.81,0,0,1-9.88,1.52,9.7,9.7,0,0,1-2.53-4.07q-.91-2.6-.91-8.7,0-8,2.16-10.69t6.69-2.71a19,19,0,0,0,3.18-.13A.68.68,0,0,0,178,4.75Zm-.13,17.9a9.06,9.06,0,0,0-1.27-5.16,4,4,0,0,0-6.8.17,10.85,10.85,0,0,0-1.22,5.61,8.49,8.49,0,0,0,1.39,5.31,4.17,4.17,0,0,0,3.38,1.76,3.77,3.77,0,0,0,3.23-2.08A10.52,10.52,0,0,0,177.85,22.64Z" transform="translate(-2.03 -4.75)"/><path class="cls-3" d="M184,12.88h2.73v15l7.61-15h3V32.58h-2.73V17.67l-7.61,14.91h-3Z" transform="translate(-2.03 -4.75)"/><path class="cls-3" d="M201.49,12.88h2.73v17h6.25v-17h2.73v17h6.25v-17h2.73v17H224v10.3h-2.26V32.58H201.49Z" transform="translate(-2.03 -4.75)"/><path class="cls-3" d="M237.54,30.15a10.21,10.21,0,0,1-2.86,2.15,7,7,0,0,1-3.08.72,5.4,5.4,0,0,1-4-1.52,5.58,5.58,0,0,1-1.5-4.1,6.32,6.32,0,0,1,.71-3,5.25,5.25,0,0,1,1.93-2.06,10.14,10.14,0,0,1,3.71-1.09,20.71,20.71,0,0,0,4.9-1.17l0-.85a4.31,4.31,0,0,0-.72-2.84,3.91,3.91,0,0,0-3.14-1.19,4.37,4.37,0,0,0-2.86.79,5.18,5.18,0,0,0-1.39,3l-2.69-.45a7.48,7.48,0,0,1,2.33-4.62,7.69,7.69,0,0,1,5-1.45,7.18,7.18,0,0,1,4,1,4.12,4.12,0,0,1,1.83,2.37,16.88,16.88,0,0,1,.38,4.12v4.45a56.55,56.55,0,0,0,.18,5.89,8.76,8.76,0,0,0,.7,2.37H238.1A8.29,8.29,0,0,1,237.54,30.15Zm-.22-7.46A17.31,17.31,0,0,1,232.85,24a8.42,8.42,0,0,0-2.41.68,2.66,2.66,0,0,0-1.07,1.08,3.29,3.29,0,0,0-.38,1.6,3,3,0,0,0,.87,2.25,3.32,3.32,0,0,0,2.41.84,4.86,4.86,0,0,0,2.66-.76,4.73,4.73,0,0,0,1.79-2,9.05,9.05,0,0,0,.59-3.7Z" transform="translate(-2.03 -4.75)"/></svg>