<svg id="Слой_1" data-name="Слой 1" xmlns="http://www.w3.org/2000/svg" viewBox="0 0 86.63 28.69"><defs><style>.cls-1{fill:#589255;}.cls-2{fill:#525aa0;}</style></defs><title>logo GIS</title><path class="cls-1" d="M82.33,1.68H80a20,20,0,0,0-20,20v6.86A1.43,1.43,0,0,0,61.4,30h6.86a20,20,0,0,0,20-20V7.59A5.92,5.92,0,0,0,82.33,1.68Zm3,8.29A17.14,17.14,0,0,1,68.26,27.09h-3.4L75.41,16.53a1.43,1.43,0,0,0-2-2L62.83,25.06v-3.4A17.14,17.14,0,0,1,80,4.54h2.38a3,3,0,0,1,3,3V10Z" transform="translate(-1.62 -1.68)"/><path class="cls-1" d="M77.92,10.73l-.62.62a1.43,1.43,0,1,0,2,2l.62-.62a1.43,1.43,0,1,0-2-2Z" transform="translate(-1.62 -1.68)"/><path class="cls-2" d="M24.21,6a5.28,5.28,0,0,1,0,.72,2.1,2.1,0,0,1-.13.51.63.63,0,0,1-.21.29.49.49,0,0,1-.28.09,1.94,1.94,0,0,1-.86-.41,13.62,13.62,0,0,0-1.61-.9,15.16,15.16,0,0,0-2.41-.9A12.06,12.06,0,0,0,15.32,5a9.76,9.76,0,0,0-4.12.84A8.88,8.88,0,0,0,8.12,8.12a10.36,10.36,0,0,0-1.94,3.52,14,14,0,0,0-.68,4.42,13.91,13.91,0,0,0,.74,4.72,10.06,10.06,0,0,0,2,3.47,8.52,8.52,0,0,0,3.12,2.15,10.56,10.56,0,0,0,4,.73A11.32,11.32,0,0,0,18,26.81a9.73,9.73,0,0,0,2.46-.93V17.79H14a.58.58,0,0,1-.55-.36,2.66,2.66,0,0,1-.18-1.14,4.82,4.82,0,0,1,0-.7,1.47,1.47,0,0,1,.14-.47.71.71,0,0,1,.23-.27.57.57,0,0,1,.32-.09h8.82a1.38,1.38,0,0,1,.47.09,1.33,1.33,0,0,1,.43.26,1.12,1.12,0,0,1,.3.47,2,2,0,0,1,.11.69V26.85a2.23,2.23,0,0,1-.19,1,1.68,1.68,0,0,1-.81.72,16.51,16.51,0,0,1-1.61.68,18.58,18.58,0,0,1-2,.62,18,18,0,0,1-4.25.52,15.58,15.58,0,0,1-5.75-1A11.72,11.72,0,0,1,5.21,26.5a12.42,12.42,0,0,1-2.67-4.42,16.94,16.94,0,0,1-.92-5.75,17.06,17.06,0,0,1,1-6A13.08,13.08,0,0,1,5.42,5.78,12.55,12.55,0,0,1,9.78,2.85a14.74,14.74,0,0,1,5.63-1,15.19,15.19,0,0,1,3,.28,19,19,0,0,1,2.48.65,10,10,0,0,1,1.82.81,5.62,5.62,0,0,1,1,.72,1.5,1.5,0,0,1,.39.64A3.93,3.93,0,0,1,24.21,6Z" transform="translate(-1.62 -1.68)"/><path class="cls-2" d="M34.76,29.4a.53.53,0,0,1-.09.3.57.57,0,0,1-.3.2,3.27,3.27,0,0,1-.57.13A7.31,7.31,0,0,1,32,30a3.25,3.25,0,0,1-.58-.13.57.57,0,0,1-.3-.2.53.53,0,0,1-.09-.3V2.76a.49.49,0,0,1,.1-.3.65.65,0,0,1,.32-.2,3.59,3.59,0,0,1,.58-.13,5.76,5.76,0,0,1,.85-.05,6.12,6.12,0,0,1,.89.05,3.28,3.28,0,0,1,.57.13.58.58,0,0,1,.3.2.53.53,0,0,1,.09.3Z" transform="translate(-1.62 -1.68)"/><path class="cls-2" d="M57,22.17a8.06,8.06,0,0,1-.72,3.48,7.47,7.47,0,0,1-2,2.58,8.64,8.64,0,0,1-3,1.6,12.49,12.49,0,0,1-3.72.54A13.3,13.3,0,0,1,45,30.13a14.09,14.09,0,0,1-2.12-.58,10.21,10.21,0,0,1-1.57-.71,4.17,4.17,0,0,1-.88-.62,1.57,1.57,0,0,1-.36-.65A3.83,3.83,0,0,1,40,26.5a5.86,5.86,0,0,1,0-.78,1.88,1.88,0,0,1,.13-.5.56.56,0,0,1,.21-.27.59.59,0,0,1,.3-.08,1.76,1.76,0,0,1,.85.36,13.24,13.24,0,0,0,1.41.79,13.74,13.74,0,0,0,2.07.8,9.46,9.46,0,0,0,2.8.38,7.14,7.14,0,0,0,2.2-.32A5.17,5.17,0,0,0,51.69,26a3.94,3.94,0,0,0,1.1-1.45,4.71,4.71,0,0,0,.39-2,3.66,3.66,0,0,0-.54-2,5.41,5.41,0,0,0-1.42-1.47,12.43,12.43,0,0,0-2-1.16l-2.31-1.07a25.09,25.09,0,0,1-2.3-1.21,9.72,9.72,0,0,1-2-1.57A7.27,7.27,0,0,1,41.2,12a7,7,0,0,1-.55-2.91A7.28,7.28,0,0,1,41.29,6,6.39,6.39,0,0,1,43,3.68a7.86,7.86,0,0,1,2.68-1.4,11.27,11.27,0,0,1,3.36-.48A10.89,10.89,0,0,1,50.94,2a12.69,12.69,0,0,1,1.76.43,9.79,9.79,0,0,1,1.47.6,3.82,3.82,0,0,1,.85.54,1.65,1.65,0,0,1,.27.32,1.24,1.24,0,0,1,.11.3,3.08,3.08,0,0,1,.06.44q0,.26,0,.66a6.5,6.5,0,0,1,0,.69,2.63,2.63,0,0,1-.1.5.62.62,0,0,1-.18.3.41.41,0,0,1-.27.1,1.72,1.72,0,0,1-.74-.3q-.5-.3-1.23-.68a10.84,10.84,0,0,0-1.73-.69A7.53,7.53,0,0,0,49,4.86a5.92,5.92,0,0,0-2,.31A4.13,4.13,0,0,0,45.53,6a3.27,3.27,0,0,0-.84,1.22,4.06,4.06,0,0,0-.28,1.5,3.62,3.62,0,0,0,.54,2,5.48,5.48,0,0,0,1.43,1.48,12.59,12.59,0,0,0,2,1.18l2.32,1.08Q51.9,15,53,15.66a9.7,9.7,0,0,1,2,1.54,7,7,0,0,1,1.44,2.1A6.91,6.91,0,0,1,57,22.17Z" transform="translate(-1.62 -1.68)"/></svg>