<?xml version="1.0" encoding="utf-8" standalone="no"?>
<!-- Creator: Esri ArcMap 10.5.0.6491 -->
<!DOCTYPE svg PUBLIC "-//W3C//DTD SVG 1.1//EN"  "http://www.w3.org/Graphics/SVG/1.1/DTD/svg11.dtd">
<svg width="76.50709pt" height="242.24882pt" viewBox="0 0 76.50709 242.24882" enable-background="new 0 0 76.50709 242.24882"
	version="1.1" xmlns="http://www.w3.org/2000/svg" xmlns:xlink="http://www.w3.org/1999/xlink" >
	<g id="Other">
		<clipPath id="SVG_CP_1">
			<path d="M0,242.24882L0,0L76.50709,0L76.50709,242.24882L0,242.24882z"/>
		</clipPath>
		<path clip-path="url(#SVG_CP_1)" fill="#730000" fill-rule="evenodd" stroke="#6E6E6E" stroke-width="0.48083" stroke-miterlimit="10" stroke-linecap="round" stroke-linejoin="round" d="
			M0.96167,14.87244L16.34836,14.87244L16.34836,27.82585L0.96167,27.82585L0.96167,14.87244z"/>
		<g font-family="'Arial'" font-size="1" kerning="0" font-weight="400" fill="#FFFFFF" clip-path="url(#SVG_CP_1)" >
			<text text-anchor="start" transform="matrix(6.73168 0 0 6.71659 21.1567 30.70439)" >
				<tspan direction="ltr" unicode-bidi="embed" x="0 ">-</tspan>
				<tspan direction="ltr" unicode-bidi="embed" x="0.28507 ">8</tspan>
				<tspan direction="ltr" unicode-bidi="embed" x="0.92649 ">0</tspan>
			</text>
		</g>
		<path clip-path="url(#SVG_CP_1)" fill="#E60000" fill-rule="evenodd" stroke="#6E6E6E" stroke-width="0.48083" stroke-miterlimit="10" stroke-linecap="round" stroke-linejoin="round" d="
			M0.96167,27.82585L16.34836,27.82585L16.34836,40.29951L0.96167,40.29951L0.96167,27.82585z"/>
		<clipPath id="SVG_CP_2">
			<path d="M0,242.24882L0,0L76.50709,0L76.50709,242.24882L0,242.24882z"/>
		</clipPath>
		<g font-family="'Arial'" font-size="1" kerning="0" font-weight="400" fill="#FFFFFF" clip-path="url(#SVG_CP_2)" >
			<text text-anchor="start" transform="matrix(6.73168 0 0 6.71659 21.1567 43.17805)" >
				<tspan direction="ltr" unicode-bidi="embed" x="0 ">-</tspan>
				<tspan direction="ltr" unicode-bidi="embed" x="0.28507 ">6</tspan>
				<tspan direction="ltr" unicode-bidi="embed" x="0.92649 ">0</tspan>
			</text>
		</g>
		<path clip-path="url(#SVG_CP_2)" fill="#FF5500" fill-rule="evenodd" stroke="#6E6E6E" stroke-width="0.48083" stroke-miterlimit="10" stroke-linecap="round" stroke-linejoin="round" d="
			M0.96167,40.29951L16.34836,40.29951L16.34836,53.25293L0.96167,53.25293L0.96167,40.29951z"/>
		<g font-family="'Arial'" font-size="1" kerning="0" font-weight="400" fill="#FFFFFF" clip-path="url(#SVG_CP_2)" >
			<text text-anchor="start" transform="matrix(6.73168 0 0 6.71659 21.1567 56.13146)" >
				<tspan direction="ltr" unicode-bidi="embed" x="0 ">-</tspan>
				<tspan direction="ltr" unicode-bidi="embed" x="0.28507 ">4</tspan>
				<tspan direction="ltr" unicode-bidi="embed" x="0.92649 ">0</tspan>
			</text>
		</g>
		<path clip-path="url(#SVG_CP_2)" fill="#FF7F7F" fill-rule="evenodd" stroke="#6E6E6E" stroke-width="0.48083" stroke-miterlimit="10" stroke-linecap="round" stroke-linejoin="round" d="
			M0.96167,53.25293L16.34836,53.25293L16.34836,66.20634L0.96167,66.20634L0.96167,53.25293z"/>
		<g font-family="'Arial'" font-size="1" kerning="0" font-weight="400" fill="#FFFFFF" clip-path="url(#SVG_CP_2)" >
			<text text-anchor="start" transform="matrix(6.73168 0 0 6.71659 21.1567 68.60512)" >
				<tspan direction="ltr" unicode-bidi="embed" x="0 ">-</tspan>
				<tspan direction="ltr" unicode-bidi="embed" x="0.28507 ">3</tspan>
				<tspan direction="ltr" unicode-bidi="embed" x="0.92649 ">0</tspan>
			</text>
		</g>
		<path clip-path="url(#SVG_CP_2)" fill="#FFA77F" fill-rule="evenodd" stroke="#6E6E6E" stroke-width="0.48083" stroke-miterlimit="10" stroke-linecap="round" stroke-linejoin="round" d="
			M0.96167,66.20634L16.34836,66.20634L16.34836,78.68L0.96167,78.68L0.96167,66.20634z"/>
		<g font-family="'Arial'" font-size="1" kerning="0" font-weight="400" fill="#FFFFFF" clip-path="url(#SVG_CP_2)" >
			<text text-anchor="start" transform="matrix(6.73168 0 0 6.71659 21.1567 81.55854)" >
				<tspan direction="ltr" unicode-bidi="embed" x="0 ">-</tspan>
				<tspan direction="ltr" unicode-bidi="embed" x="0.28507 ">2</tspan>
				<tspan direction="ltr" unicode-bidi="embed" x="0.92649 ">0</tspan>
			</text>
		</g>
		<path clip-path="url(#SVG_CP_2)" fill="#FFD37F" fill-rule="evenodd" stroke="#6E6E6E" stroke-width="0.48083" stroke-miterlimit="10" stroke-linecap="round" stroke-linejoin="round" d="
			M0.96167,78.68L16.34836,78.68L16.34836,91.63342L0.96167,91.63342L0.96167,78.68z"/>
		<g font-family="'Arial'" font-size="1" kerning="0" font-weight="400" fill="#FFFFFF" clip-path="url(#SVG_CP_2)" >
			<text text-anchor="start" transform="matrix(6.73168 0 0 6.71659 21.1567 94.0322)" >
				<tspan direction="ltr" unicode-bidi="embed" x="0 ">-</tspan>
				<tspan direction="ltr" unicode-bidi="embed" x="0.28507 ">1</tspan>
				<tspan direction="ltr" unicode-bidi="embed" x="0.92649 ">0</tspan>
			</text>
		</g>
		<path clip-path="url(#SVG_CP_2)" fill="#FFFFBE" fill-rule="evenodd" stroke="#6E6E6E" stroke-width="0.48083" stroke-miterlimit="10" stroke-linecap="round" stroke-linejoin="round" d="
			M0.96167,91.63342L16.34836,91.63342L16.34836,104.58683L0.96167,104.58683L0.96167,91.63342z"/>
		<g font-family="'Arial'" font-size="1" kerning="0" font-weight="400" fill="#FFFFFF" clip-path="url(#SVG_CP_2)" >
			<text text-anchor="start" transform="matrix(6.73168 0 0 6.71659 21.1567 106.50585)" >
				<tspan direction="ltr" unicode-bidi="embed" x="0 ">-</tspan>
				<tspan direction="ltr" unicode-bidi="embed" x="0.28507 ">5</tspan>
			</text>
		</g>
		<path clip-path="url(#SVG_CP_2)" fill="#FFFFFF" fill-rule="evenodd" stroke="#6E6E6E" stroke-width="0.48083" stroke-miterlimit="10" stroke-linecap="round" stroke-linejoin="round" d="
			M0.96167,104.58683L16.34836,104.58683L16.34836,117.06049L0.96167,117.06049L0.96167,104.58683z"/>
		<g font-family="'Arial'" font-size="1" kerning="0" font-weight="400" fill="#FFFFFF" clip-path="url(#SVG_CP_2)" >
			<text text-anchor="start" transform="matrix(6.73168 0 0 6.71659 21.1567 119.45927)" >
				<tspan direction="ltr" unicode-bidi="embed" x="0.28507 ">5</tspan>
			</text>
		</g>
		<path clip-path="url(#SVG_CP_2)" fill="#E9FFBE" fill-rule="evenodd" stroke="#6E6E6E" stroke-width="0.48083" stroke-miterlimit="10" stroke-linecap="round" stroke-linejoin="round" d="
			M0.96167,117.06049L16.34836,117.06049L16.34836,130.0139L0.96167,130.0139L0.96167,117.06049z"/>
		<g font-family="'Arial'" font-size="1" kerning="0" font-weight="400" fill="#FFFFFF" clip-path="url(#SVG_CP_2)" >
			<text text-anchor="start" transform="matrix(6.73168 0 0 6.71659 21.1567 131.93293)" >
				<tspan direction="ltr" unicode-bidi="embed" x="0 ">1</tspan>
				<tspan direction="ltr" unicode-bidi="embed" x="0.57015 ">0</tspan>
			</text>
		</g>
		<path clip-path="url(#SVG_CP_2)" fill="#AAFF00" fill-rule="evenodd" stroke="#6E6E6E" stroke-width="0.48083" stroke-miterlimit="10" stroke-linecap="round" stroke-linejoin="round" d="
			M0.96167,130.0139L16.34836,130.0139L16.34836,142.96732L0.96167,142.96732L0.96167,130.0139z"/>
		<g font-family="'Arial'" font-size="1" kerning="0" font-weight="400" fill="#FFFFFF" clip-path="url(#SVG_CP_2)" >
			<text text-anchor="start" transform="matrix(6.73168 0 0 6.71659 21.1567 144.40659)" >
				<tspan direction="ltr" unicode-bidi="embed" x="0 ">2</tspan>
				<tspan direction="ltr" unicode-bidi="embed" x="0.57015 ">0</tspan>
			</text>
		</g>
		<path clip-path="url(#SVG_CP_2)" fill="#4CE600" fill-rule="evenodd" stroke="#6E6E6E" stroke-width="0.48083" stroke-miterlimit="10" stroke-linecap="round" stroke-linejoin="round" d="
			M0.96167,142.96732L16.34836,142.96732L16.34836,155.44098L0.96167,155.44098L0.96167,142.96732z"/>
		<g font-family="'Arial'" font-size="1" kerning="0" font-weight="400" fill="#FFFFFF" clip-path="url(#SVG_CP_2)" >
			<text text-anchor="start" transform="matrix(6.73168 0 0 6.71659 21.1567 157.36)" >
				<tspan direction="ltr" unicode-bidi="embed" x="0 ">3</tspan>
				<tspan direction="ltr" unicode-bidi="embed" x="0.57015 ">0</tspan>
			</text>
		</g>
		<path clip-path="url(#SVG_CP_2)" fill="#38A800" fill-rule="evenodd" stroke="#6E6E6E" stroke-width="0.48083" stroke-miterlimit="10" stroke-linecap="round" stroke-linejoin="round" d="
			M0.96167,155.44098L16.34836,155.44098L16.34836,168.39439L0.96167,168.39439L0.96167,155.44098z"/>
		<g font-family="'Arial'" font-size="1" kerning="0" font-weight="400" fill="#FFFFFF" clip-path="url(#SVG_CP_2)" >
			<text text-anchor="start" transform="matrix(6.73168 0 0 6.71659 21.1567 169.83366)" >
				<tspan direction="ltr" unicode-bidi="embed" x="0 ">4</tspan>
				<tspan direction="ltr" unicode-bidi="embed" x="0.57015 ">0</tspan>
			</text>
		</g>
		<path clip-path="url(#SVG_CP_2)" fill="#267300" fill-rule="evenodd" stroke="#6E6E6E" stroke-width="0.48083" stroke-miterlimit="10" stroke-linecap="round" stroke-linejoin="round" d="
			M0.96167,168.39439L16.34836,168.39439L16.34836,180.86805L0.96167,180.86805L0.96167,168.39439z"/>
		<g font-family="'Arial'" font-size="1" kerning="0" font-weight="400" fill="#FFFFFF" clip-path="url(#SVG_CP_2)" >
			<text text-anchor="start" transform="matrix(6.73168 0 0 6.71659 21.1567 182.30732)" >
				<tspan direction="ltr" unicode-bidi="embed" x="0 ">6</tspan>
				<tspan direction="ltr" unicode-bidi="embed" x="0.57015 ">0</tspan>
			</text>
		</g>
		<path clip-path="url(#SVG_CP_2)" fill="#00734C" fill-rule="evenodd" stroke="#6E6E6E" stroke-width="0.48083" stroke-miterlimit="10" stroke-linecap="round" stroke-linejoin="round" d="
			M0.96167,180.86805L16.34836,180.86805L16.34836,193.82146L0.96167,193.82146L0.96167,180.86805z"/>
		<g font-family="'Arial'" font-size="1" kerning="0" font-weight="400" fill="#FFFFFF" clip-path="url(#SVG_CP_2)" >
			<text text-anchor="start" transform="matrix(6.73168 0 0 6.71659 21.1567 195.26073)" >
				<tspan direction="ltr" unicode-bidi="embed" x="0 ">8</tspan>
				<tspan direction="ltr" unicode-bidi="embed" x="0.57015 ">0</tspan>
			</text>
		</g>
		<path clip-path="url(#SVG_CP_2)" fill="#004C73" fill-rule="evenodd" stroke="#6E6E6E" stroke-width="0.48083" stroke-miterlimit="10" stroke-linecap="round" stroke-linejoin="round" d="
			M0.96167,193.82146L16.34836,193.82146L16.34836,206.77488L0.96167,206.77488L0.96167,193.82146z"/>
		<g font-family="'Arial'" font-size="1" kerning="0" font-weight="400" fill="#FFFFFF" clip-path="url(#SVG_CP_2)" >
			<text text-anchor="start" transform="matrix(6.73168 0 0 6.71659 21.1567 207.73439)" >
				<tspan direction="ltr" unicode-bidi="embed" x="0 ">1</tspan>
				<tspan direction="ltr" unicode-bidi="embed" x="0.57015 ">2</tspan>
				<tspan direction="ltr" unicode-bidi="embed" x="1.1403 ">5</tspan>
			</text>
		</g>
		<g font-family="'Arial'" font-size="1" kerning="0" font-weight="400" fill="#FFFFFF" clip-path="url(#SVG_CP_2)" >
			<text text-anchor="start" transform="matrix(6.73168 0 0 6.71659 21.1567 18.23073)" >
				<tspan direction="ltr" unicode-bidi="embed" x="0 ">-</tspan>
				<tspan direction="ltr" unicode-bidi="embed" x="0.28507 ">1</tspan>
				<tspan direction="ltr" unicode-bidi="embed" x="0.92649 ">2</tspan>
				<tspan direction="ltr" unicode-bidi="embed" x="1.49664 ">5</tspan>
			</text>
		</g>
		<g font-family="'Arial'" font-size="1" kerning="0" font-weight="400" fill="#FFFFFF" clip-path="url(#SVG_CP_2)" >
			<text text-anchor="start" transform="matrix(6.73168 0 0 6.71659 21.1567 224.0461)" >
				<tspan direction="ltr" unicode-bidi="embed" x="0 ">Н</tspan>
				<tspan direction="ltr" unicode-bidi="embed" x="0.71269 ">е</tspan>
				<tspan direction="ltr" unicode-bidi="embed" x="1.28283 ">т</tspan>
				<tspan direction="ltr" unicode-bidi="embed" x="2.06679 ">д</tspan>
				<tspan direction="ltr" unicode-bidi="embed" x="2.63693 ">а</tspan>
				<tspan direction="ltr" unicode-bidi="embed" x="3.20708 ">н</tspan>
				<tspan direction="ltr" unicode-bidi="embed" x="3.8485 ">н</tspan>
				<tspan direction="ltr" unicode-bidi="embed" x="4.41864 ">ы</tspan>
				<tspan direction="ltr" unicode-bidi="embed" x="5.13133 ">х</tspan>
			</text>
		</g>
		<g font-family="'Arial'" font-size="1" kerning="0" font-weight="400" fill="#FFFFFF" clip-path="url(#SVG_CP_2)" >
			<text text-anchor="start" transform="matrix(6.73168 0 0 6.71659 21.1567 238.43878)" >
				<tspan direction="ltr" unicode-bidi="embed" x="0 ">В</tspan>
				<tspan direction="ltr" unicode-bidi="embed" x="0.64142 ">о</tspan>
				<tspan direction="ltr" unicode-bidi="embed" x="1.21156 ">д</tspan>
				<tspan direction="ltr" unicode-bidi="embed" x="1.85298 ">а</tspan>
			</text>
		</g>
		<path clip-path="url(#SVG_CP_2)" fill="#4E4E4E" fill-rule="evenodd" stroke="#6E6E6E" stroke-width="0.48083" stroke-miterlimit="10" stroke-linecap="round" stroke-linejoin="round" d="
			M0.96167,215.41049L16.34836,215.41049L16.34836,228.3639L0.96167,228.3639L0.96167,215.41049z"/>
		<path clip-path="url(#SVG_CP_2)" fill="#00C5FF" fill-rule="evenodd" stroke="#6E6E6E" stroke-width="0.48083" stroke-miterlimit="10" stroke-linecap="round" stroke-linejoin="round" d="
			M0.96167,228.3639L16.34836,228.3639L16.34836,240.83756L0.96167,240.83756L0.96167,228.3639z"/>
		<g font-family="'Arial'" font-size="1" kerning="0" font-weight="400" fill="#FFFFFF" clip-path="url(#SVG_CP_2)" >
			<text text-anchor="start" transform="matrix(8.65501 0 0 8.63561 0.48083 8.63561)" >
				<tspan direction="ltr" unicode-bidi="embed" x="0 ">N</tspan>
				<tspan direction="ltr" unicode-bidi="embed" x="0.7206 ">D</tspan>
				<tspan direction="ltr" unicode-bidi="embed" x="1.49664 ">V</tspan>
				<tspan direction="ltr" unicode-bidi="embed" x="2.16181 ">I</tspan>
				<tspan direction="ltr" unicode-bidi="embed" x="2.71612 ">A</tspan>
				<tspan direction="ltr" unicode-bidi="embed" x="3.43672 ">n</tspan>
				<tspan direction="ltr" unicode-bidi="embed" x="3.99103 ">o</tspan>
				<tspan direction="ltr" unicode-bidi="embed" x="4.60077 ">m</tspan>
				<tspan direction="ltr" unicode-bidi="embed" x="5.43224 ">a</tspan>
				<tspan direction="ltr" unicode-bidi="embed" x="6.04198 ">l</tspan>
				<tspan direction="ltr" unicode-bidi="embed" x="6.26371 ">y</tspan>
				<tspan direction="ltr" unicode-bidi="embed" x="7.09517 ">(</tspan>
				<tspan direction="ltr" unicode-bidi="embed" x="7.42776 ">%</tspan>
				<tspan direction="ltr" unicode-bidi="embed" x="8.37008 ">)</tspan>
			</text>
		</g>
	</g>
</svg>
